<svg width="21" height="19" viewBox="0 0 21 19" fill="none" xmlns="http://www.w3.org/2000/svg">
<path d="M20.3159 4.227C19.9352 3.76495 19.3445 3.48529 18.7342 3.48728L5.91109 3.52901L5.5065 2.0406C5.27172 1.17537 4.47027 0.573896 3.54327 0.576916L1.39569 0.583906C1.0379 0.585066 0.743515 0.867606 0.744632 1.21056C0.745745 1.5527 1.04112 1.83413 1.39976 1.83296L3.54733 1.82597C3.86318 1.82494 4.13775 2.02541 4.22262 2.32717L6.82318 12.1051C7.05796 12.9703 7.85941 13.5718 8.78641 13.5688L17.1876 13.5415C18.1138 13.5384 18.9335 12.9317 19.1413 12.065L20.7004 5.85791C20.8458 5.29269 20.7179 4.68903 20.3159 4.22706V4.227ZM19.4155 5.57886L17.8564 11.786C17.7735 12.0883 17.5003 12.2905 17.1844 12.2916L8.78236 12.3189C8.46651 12.3199 8.19195 12.1195 8.10708 11.8177L6.25244 4.79674L18.7393 4.7561C18.9499 4.75542 19.1608 4.85541 19.288 5.01624C19.4143 5.17629 19.4775 5.37744 19.4156 5.579L19.4155 5.57886Z" fill="#43464E"/>
<path d="M9.23199 14.3711C8.03193 14.375 7.04559 15.3244 7.04933 16.4719C7.05306 17.6194 8.04564 18.5624 9.24562 18.5585C10.4457 18.5554 11.432 17.606 11.4283 16.4583C11.4245 15.3106 10.432 14.367 9.23199 14.3709V14.3711ZM9.24149 17.2908C8.75702 17.2923 8.37665 16.931 8.37514 16.4677C8.37363 16.0044 8.75164 15.6406 9.23612 15.639C9.72059 15.6374 10.101 15.9988 10.1025 16.4621C10.1031 16.9057 9.70459 17.2893 9.24149 17.2908Z" fill="#43464E"/>
<path d="M16.4751 14.3474C15.2751 14.3513 14.2887 15.3007 14.2925 16.4482C14.2962 17.5957 15.2888 18.5387 16.4888 18.5348C17.6888 18.5309 18.6752 17.5814 18.6714 16.4339C18.6471 15.2872 17.6751 14.3435 16.4751 14.3474ZM16.4846 17.267C16.0002 17.2686 15.6198 16.9072 15.6183 16.444C15.6168 15.9807 15.9948 15.6168 16.4793 15.6153C16.9637 15.6137 17.3441 15.9751 17.3456 16.4383C17.3471 16.8819 16.9477 17.2655 16.4846 17.267Z" fill="#43464E"/>
</svg>
