<svg width="26" height="25" viewBox="0 0 26 25" fill="none" xmlns="http://www.w3.org/2000/svg">
<g clip-path="url(#clip0_150_268)">
<path d="M24.4347 6.09498C23.9779 5.54053 23.2691 5.20494 22.5367 5.20732L7.14897 5.2574L6.66346 3.47131C6.38172 2.43303 5.41999 1.71127 4.30758 1.71489L1.73049 1.72328C1.30114 1.72468 0.947877 2.06372 0.949216 2.47526C0.950553 2.88583 1.305 3.22354 1.73537 3.22214L4.31246 3.21375C4.69148 3.21252 5.02096 3.45308 5.1228 3.81519L8.24348 15.5487C8.52521 16.587 9.48695 17.3088 10.5994 17.3051L20.6808 17.2723C21.7922 17.2687 22.7759 16.5406 23.0252 15.5006L24.8961 8.05208C25.0706 7.37382 24.9172 6.64943 24.4347 6.09506L24.4347 6.09498ZM23.3543 7.71722L21.4834 15.1657C21.3839 15.5285 21.056 15.7712 20.677 15.7724L10.5945 15.8053C10.2155 15.8065 9.886 15.5659 9.78415 15.2038L7.55859 6.77868L22.5428 6.72991C22.7955 6.72909 23.0486 6.84908 23.2012 7.04208C23.3529 7.23413 23.4287 7.47552 23.3544 7.71739L23.3543 7.71722Z" fill="white"/>
<path d="M11.134 18.2678C9.69389 18.2725 8.51029 19.4118 8.51477 20.7888C8.51925 22.1658 9.71034 23.2974 11.1503 23.2927C12.5904 23.2889 13.774 22.1496 13.7695 20.7724C13.765 19.3952 12.5739 18.2629 11.134 18.2676L11.134 18.2678ZM11.1454 21.7714C10.564 21.7733 10.1076 21.3397 10.1057 20.7837C10.1039 20.2278 10.5576 19.7912 11.1389 19.7893C11.7203 19.7874 12.1767 20.221 12.1785 20.777C12.1793 21.3093 11.7011 21.7696 11.1454 21.7714Z" fill="white"/>
<path d="M19.8256 18.2395C18.3855 18.2442 17.2019 19.3835 17.2064 20.7605C17.2109 22.1375 18.402 23.2691 19.842 23.2644C21.2819 23.2597 22.4657 22.1204 22.4612 20.7434C22.432 19.3673 21.2656 18.2348 19.8256 18.2395ZM19.837 21.7431C19.2557 21.745 18.7992 21.3113 18.7974 20.7554C18.7956 20.1995 19.2492 19.7629 19.8306 19.761C20.4119 19.7591 20.8684 20.1927 20.8702 20.7487C20.8719 21.281 20.3927 21.7413 19.837 21.7431Z" fill="white"/>
</g>
<defs>
<clipPath id="clip0_150_268">
<rect width="24" height="24" fill="white" transform="translate(0.942139 0.322998) rotate(-0.18647)"/>
</clipPath>
</defs>
</svg>
