<svg width="33" height="31" viewBox="0 0 33 31" fill="none" xmlns="http://www.w3.org/2000/svg">
<path d="M15.2102 21.3413L16.2182 21.356L16.2267 23.966L15.2187 23.9692L15.2102 21.3413ZM15.2995 21.143L15.2639 10.181L16.0735 10.0524L16.1097 21.1763L15.2995 21.143ZM15.1647 7.37333L16.1727 7.37005L16.1811 9.94403L15.1735 10.0733L15.1647 7.37333ZM19.1936 11.9322C19.049 11.7647 18.8565 11.6033 18.616 11.4481C18.3755 11.2929 18.1051 11.1558 17.8047 11.0368C17.5042 10.9057 17.1739 10.8048 16.8137 10.734C16.4654 10.6511 16.0993 10.6103 15.7153 10.6116C14.7313 10.6148 14.0059 10.8031 13.5391 11.1766C13.0723 11.5502 12.84 12.0609 12.8421 12.7089C12.8436 13.1649 12.9647 13.5245 13.2056 13.7877C13.4465 14.051 13.8132 14.2658 14.3057 14.4322C14.8102 14.5985 15.4468 14.7705 16.2154 14.9479C17.104 15.1371 17.8728 15.3686 18.5217 15.6424C19.1706 15.9163 19.6698 16.2867 20.0193 16.7536C20.3688 17.2084 20.5448 17.8199 20.5473 18.5879C20.5493 19.1999 20.431 19.7343 20.1925 20.191C19.9659 20.6358 19.6431 21.0088 19.2241 21.3102C18.8051 21.5996 18.3138 21.8172 17.7502 21.963C17.1867 22.0968 16.5749 22.1648 15.9149 22.167C15.2669 22.1691 14.6307 22.1051 14.0063 21.9752C13.3938 21.8332 12.8111 21.6311 12.2583 21.3689C11.7054 21.1067 11.1883 20.7783 10.7071 20.3839L11.4766 19.0134C11.6693 19.2168 11.9159 19.42 12.2166 19.623C12.5292 19.814 12.8778 19.9928 13.2623 20.1596C13.6589 20.3263 14.0853 20.4629 14.5417 20.5694C14.998 20.6639 15.4661 20.7104 15.9461 20.7089C16.8581 20.7059 17.5656 20.5416 18.0685 20.2159C18.5715 19.8783 18.8219 19.3915 18.8198 18.7555C18.8182 18.2755 18.673 17.892 18.3841 17.6049C18.1071 17.3178 17.6923 17.0792 17.1397 16.889C16.5871 16.6987 15.9145 16.5089 15.1218 16.3195C14.2572 16.1063 13.5304 15.8747 12.9416 15.6246C12.3527 15.3625 11.9076 15.022 11.6062 14.6029C11.3169 14.1839 11.1711 13.6384 11.1689 12.9664C11.1663 12.1504 11.362 11.4597 11.7562 10.8944C12.1503 10.3292 12.6949 9.90138 13.39 9.61112C14.0851 9.32085 14.8706 9.1743 15.7466 9.17144C16.3226 9.16957 16.8568 9.22783 17.3492 9.34623C17.8536 9.46459 18.3221 9.63106 18.7548 9.84566C19.1875 10.0603 19.5843 10.317 19.9453 10.6158L19.1936 11.9322Z" fill="#1D1F22"/>
</svg>
